<?xml version="1.0" encoding="UTF-8"?>
<svg width="1024" height="1024" viewBox="0 0 1024 1024" xmlns="http://www.w3.org/2000/svg">
  <defs>
    <linearGradient id="bg" x1="0" y1="0" x2="0" y2="1">
      <stop offset="0" stop-color="#151B30"/><stop offset="1" stop-color="#090D1A"/>
    </linearGradient>
    <radialGradient id="glow" cx="0.5" cy="0.42" r="0.7">
      <stop offset="0" stop-color="#FFFFFF" stop-opacity="0.10"/>
      <stop offset="1" stop-color="#FFFFFF" stop-opacity="0"/>
    </radialGradient>
    <radialGradient id="spike" cx="0.5" cy="0.5" r="0.5">
      <stop offset="0" stop-color="#7FE0E4"/><stop offset="1" stop-color="#2C6A79"/>
    </radialGradient>
    <radialGradient id="band" cx="0.5" cy="0.45" r="0.6">
      <stop offset="0" stop-color="#3E96A0"/><stop offset="1" stop-color="#276C7C"/>
    </radialGradient>
    <radialGradient id="coreGlow" cx="0.5" cy="0.5" r="0.5">
      <stop offset="0" stop-color="#F2FBFF"/><stop offset="0.5" stop-color="#8CEDE6"/>
      <stop offset="1" stop-color="#3EBFC4"/>
    </radialGradient>
  </defs>
  <rect x="100" y="100" width="824" height="824" rx="185" fill="url(#bg)"/>
  <rect x="100" y="100" width="824" height="824" rx="185" fill="url(#glow)"/>
  <g>
    <path d="M 499.79 746.68 L 512.00 962.66 L 524.21 746.68 Z" fill="url(#spike)" opacity="0.92"/>
    <path d="M 590.52 733.49 L 663.46 877.66 L 613.09 724.14 Z" fill="url(#spike)" opacity="0.92"/>
    <path d="M 669.31 686.58 L 811.87 811.87 L 686.58 669.31 Z" fill="url(#spike)" opacity="0.92"/>
    <path d="M 724.14 613.09 L 948.52 692.81 L 733.49 590.52 Z" fill="url(#spike)" opacity="0.92"/>
    <path d="M 746.68 524.21 L 971.69 512.00 L 746.68 499.79 Z" fill="url(#spike)" opacity="0.92"/>
    <path d="M 733.49 433.48 L 874.36 361.91 L 724.14 410.91 Z" fill="url(#spike)" opacity="0.92"/>
    <path d="M 686.58 354.69 L 804.29 219.71 L 669.31 337.42 Z" fill="url(#spike)" opacity="0.92"/>
    <path d="M 613.09 299.86 L 691.98 77.48 L 590.52 290.51 Z" fill="url(#spike)" opacity="0.92"/>
    <path d="M 524.21 277.32 L 512.00 44.73 L 499.79 277.32 Z" fill="url(#spike)" opacity="0.92"/>
    <path d="M 433.48 290.51 L 356.81 137.34 L 410.91 299.86 Z" fill="url(#spike)" opacity="0.92"/>
    <path d="M 354.69 337.42 L 228.13 228.13 L 337.42 354.69 Z" fill="url(#spike)" opacity="0.92"/>
    <path d="M 299.86 410.91 L 81.28 333.59 L 290.51 433.48 Z" fill="url(#spike)" opacity="0.92"/>
    <path d="M 277.32 499.79 L 38.79 512.00 L 277.32 524.21 Z" fill="url(#spike)" opacity="0.92"/>
    <path d="M 290.51 590.52 L 125.47 672.10 L 299.86 613.09 Z" fill="url(#spike)" opacity="0.92"/>
    <path d="M 337.42 669.31 L 237.23 786.77 L 354.69 686.58 Z" fill="url(#spike)" opacity="0.92"/>
    <path d="M 410.91 724.14 L 335.88 937.20 L 433.48 733.49 Z" fill="url(#spike)" opacity="0.92"/>
    <path d="M 783.51 512.00 L 783.53 509.63 L 783.44 507.26 L 783.24 504.90 L 782.96 502.54 L 782.62 500.18 L 782.23 497.84 L 781.82 495.50 L 781.42 493.16 L 781.04 490.83 L 780.70 488.49 L 780.40 486.16 L 780.15 483.82 L 779.94 481.47 L 779.76 479.12 L 779.58 476.77 L 779.40 474.42 L 779.18 472.07 L 778.91 469.73 L 778.56 467.39 L 778.11 465.08 L 777.57 462.78 L 776.91 460.51 L 776.15 458.26 L 775.30 456.03 L 774.37 453.83 L 773.39 451.65 L 772.38 449.49 L 771.37 447.33 L 770.39 445.18 L 769.46 443.01 L 768.60 440.84 L 767.84 438.64 L 767.17 436.41 L 766.61 434.16 L 766.13 431.87 L 765.74 429.56 L 765.40 427.21 L 765.09 424.85 L 764.78 422.49 L 764.44 420.12 L 764.04 417.76 L 763.56 415.44 L 762.97 413.14 L 762.25 410.89 L 761.41 408.69 L 760.43 406.55 L 759.33 404.46 L 758.11 402.43 L 756.79 400.44 L 755.40 398.50 L 753.97 396.59 L 752.50 394.70 L 751.03 392.82 L 749.58 390.95 L 748.16 389.06 L 746.77 387.17 L 745.42 385.26 L 744.11 383.34 L 742.82 381.41 L 741.54 379.48 L 740.26 377.55 L 738.95 375.63 L 737.61 373.75 L 736.20 371.90 L 734.74 370.10 L 733.19 368.36 L 731.57 366.67 L 729.88 365.04 L 728.13 363.46 L 726.34 361.92 L 724.52 360.41 L 722.71 358.91 L 720.91 357.41 L 719.16 355.89 L 717.48 354.33 L 715.88 352.71 L 714.38 351.02 L 712.98 349.25 L 711.68 347.39 L 710.48 345.46 L 709.35 343.44 L 708.29 341.37 L 707.26 339.25 L 706.25 337.10 L 705.23 334.94 L 704.17 332.80 L 703.05 330.70 L 701.87 328.65 L 700.59 326.67 L 699.22 324.78 L 697.77 322.96 L 696.22 321.24 L 694.59 319.59 L 692.89 318.01 L 691.15 316.49 L 689.37 315.01 L 687.58 313.54 L 685.78 312.09 L 684.00 310.62 L 682.23 309.13 L 680.48 307.61 L 678.76 306.07 L 677.05 304.50 L 675.35 302.92 L 673.65 301.33 L 671.93 299.76 L 670.19 298.23 L 668.40 296.74 L 666.55 295.32 L 664.65 293.99 L 662.68 292.76 L 660.65 291.62 L 658.55 290.59 L 656.40 289.64 L 654.21 288.78 L 651.98 287.98 L 649.75 287.22 L 647.51 286.47 L 645.29 285.71 L 643.10 284.92 L 640.95 284.08 L 638.85 283.16 L 636.79 282.17 L 634.78 281.09 L 632.81 279.93 L 630.87 278.70 L 628.95 277.43 L 627.04 276.13 L 625.13 274.83 L 623.19 273.56 L 621.22 272.35 L 619.20 271.22 L 617.14 270.20 L 615.02 269.31 L 612.84 268.55 L 610.61 267.93 L 608.33 267.44 L 606.02 267.08 L 603.67 266.83 L 601.30 266.66 L 598.92 266.55 L 596.54 266.49 L 594.17 266.43 L 591.81 266.37 L 589.47 266.29 L 587.16 266.18 L 584.86 266.03 L 582.58 265.85 L 580.32 265.64 L 578.07 265.42 L 575.82 265.21 L 573.58 265.03 L 571.32 264.89 L 569.07 264.82 L 566.80 264.83 L 564.52 264.93 L 562.23 265.12 L 559.94 265.39 L 557.64 265.74 L 555.35 266.14 L 553.07 266.58 L 550.80 267.02 L 548.55 267.44 L 546.32 267.80 L 544.11 268.08 L 541.93 268.25 L 539.77 268.30 L 537.62 268.21 L 535.50 267.98 L 533.38 267.62 L 531.27 267.14 L 529.16 266.56 L 527.05 265.91 L 524.93 265.22 L 522.80 264.53 L 520.67 263.86 L 518.51 263.24 L 516.35 262.71 L 514.18 262.27 L 512.00 261.94 L 509.82 261.73 L 507.63 261.63 L 505.44 261.63 L 503.26 261.71 L 501.08 261.85 L 498.90 262.03 L 496.72 262.23 L 494.55 262.41 L 492.37 262.57 L 490.19 262.69 L 488.00 262.76 L 485.81 262.78 L 483.60 262.76 L 481.39 262.71 L 479.17 262.65 L 476.95 262.60 L 474.72 262.58 L 472.50 262.61 L 470.28 262.71 L 468.08 262.91 L 465.89 263.21 L 463.72 263.62 L 461.57 264.12 L 459.44 264.72 L 457.33 265.40 L 455.24 266.13 L 453.15 266.88 L 451.07 267.64 L 448.99 268.37 L 446.90 269.04 L 444.79 269.64 L 442.65 270.15 L 440.48 270.56 L 438.28 270.87 L 436.04 271.09 L 433.77 271.24 L 431.47 271.32 L 429.15 271.38 L 426.81 271.44 L 424.47 271.53 L 422.15 271.68 L 419.84 271.91 L 417.56 272.26 L 415.33 272.73 L 413.14 273.33 L 411.00 274.07 L 408.92 274.94 L 406.89 275.92 L 404.90 277.00 L 402.96 278.15 L 401.04 279.36 L 399.14 280.60 L 397.25 281.84 L 395.36 283.07 L 393.46 284.28 L 391.54 285.45 L 389.61 286.59 L 387.66 287.69 L 385.70 288.77 L 383.74 289.84 L 381.78 290.93 L 379.83 292.03 L 377.91 293.19 L 376.03 294.40 L 374.19 295.68 L 372.40 297.04 L 370.67 298.48 L 369.00 299.99 L 367.37 301.57 L 365.79 303.19 L 364.24 304.84 L 362.70 306.50 L 361.15 308.14 L 359.58 309.73 L 357.97 311.26 L 356.30 312.71 L 354.56 314.07 L 352.74 315.33 L 350.84 316.50 L 348.86 317.57 L 346.80 318.57 L 344.68 319.52 L 342.51 320.42 L 340.31 321.32 L 338.11 322.23 L 335.93 323.18 L 333.78 324.20 L 331.69 325.28 L 329.67 326.46 L 327.74 327.74 L 325.89 329.11 L 324.13 330.57 L 322.44 332.12 L 320.83 333.74 L 319.28 335.41 L 317.77 337.11 L 316.28 338.84 L 314.80 340.57 L 313.31 342.30 L 311.80 344.01 L 310.26 345.70 L 308.70 347.37 L 307.12 349.03 L 305.53 350.69 L 303.94 352.35 L 302.36 354.03 L 300.82 355.74 L 299.34 357.49 L 297.93 359.30 L 296.61 361.18 L 295.38 363.12 L 294.26 365.13 L 293.24 367.21 L 292.32 369.34 L 291.48 371.51 L 290.71 373.72 L 289.97 375.94 L 289.26 378.17 L 288.54 380.37 L 287.79 382.55 L 286.99 384.70 L 286.13 386.80 L 285.18 388.85 L 284.16 390.85 L 283.06 392.82 L 281.90 394.76 L 280.69 396.67 L 279.46 398.58 L 278.23 400.50 L 277.04 402.44 L 275.91 404.41 L 274.87 406.42 L 273.94 408.49 L 273.14 410.61 L 272.48 412.79 L 271.96 415.02 L 271.58 417.29 L 271.32 419.61 L 271.18 421.96 L 271.12 424.33 L 271.14 426.71 L 271.19 429.08 L 271.26 431.45 L 271.33 433.80 L 271.38 436.13 L 271.39 438.44 L 271.38 440.73 L 271.34 442.99 L 271.27 445.24 L 271.20 447.48 L 271.14 449.71 L 271.11 451.94 L 271.13 454.17 L 271.21 456.41 L 271.38 458.66 L 271.64 460.91 L 271.99 463.17 L 272.43 465.43 L 272.95 467.69 L 273.52 469.95 L 274.13 472.19 L 274.75 474.42 L 275.34 476.63 L 275.88 478.81 L 276.33 480.97 L 276.68 483.11 L 276.91 485.22 L 277.00 487.30 L 276.96 489.37 L 276.78 491.42 L 276.48 493.46 L 276.09 495.50 L 275.63 497.54 L 275.13 499.59 L 274.62 501.64 L 274.14 503.69 L 273.71 505.76 L 273.36 507.83 L 273.11 509.92 L 272.97 512.00 L 272.94 514.09 L 273.03 516.17 L 273.21 518.25 L 273.47 520.33 L 273.80 522.40 L 274.16 524.46 L 274.53 526.52 L 274.90 528.58 L 275.24 530.63 L 275.53 532.69 L 275.77 534.75 L 275.97 536.81 L 276.12 538.88 L 276.23 540.95 L 276.34 543.03 L 276.45 545.10 L 276.58 547.18 L 276.77 549.26 L 277.03 551.32 L 277.38 553.37 L 277.83 555.40 L 278.38 557.41 L 279.03 559.40 L 279.77 561.36 L 280.58 563.30 L 281.44 565.23 L 282.32 567.14 L 283.20 569.05 L 284.05 570.95 L 284.84 572.87 L 285.55 574.80 L 286.17 576.76 L 286.68 578.74 L 287.09 580.76 L 287.40 582.81 L 287.64 584.90 L 287.81 587.01 L 287.94 589.15 L 288.08 591.30 L 288.23 593.44 L 288.45 595.58 L 288.74 597.70 L 289.14 599.79 L 289.66 601.83 L 290.31 603.83 L 291.09 605.77 L 291.99 607.66 L 293.00 609.51 L 294.10 611.30 L 295.27 613.06 L 296.49 614.79 L 297.73 616.51 L 298.97 618.21 L 300.20 619.92 L 301.39 621.63 L 302.55 623.37 L 303.66 625.12 L 304.74 626.89 L 305.78 628.67 L 306.82 630.46 L 307.85 632.25 L 308.91 634.03 L 310.00 635.78 L 311.15 637.50 L 312.36 639.18 L 313.65 640.81 L 315.01 642.39 L 316.44 643.91 L 317.92 645.39 L 319.45 646.82 L 321.00 648.24 L 322.55 649.64 L 324.07 651.06 L 325.55 652.50 L 326.96 653.99 L 328.28 655.54 L 329.51 657.16 L 330.63 658.87 L 331.65 660.67 L 332.58 662.55 L 333.42 664.52 L 334.21 666.55 L 334.95 668.64 L 335.69 670.75 L 336.43 672.88 L 337.20 675.00 L 338.03 677.09 L 338.94 679.12 L 339.93 681.09 L 341.01 682.99 L 342.19 684.80 L 343.45 686.53 L 344.80 688.19 L 346.21 689.79 L 347.67 691.33 L 349.17 692.84 L 350.68 694.34 L 352.20 695.83 L 353.70 697.34 L 355.19 698.88 L 356.66 700.45 L 358.10 702.05 L 359.53 703.68 L 360.96 705.33 L 362.39 706.98 L 363.83 708.63 L 365.31 710.25 L 366.82 711.82 L 368.40 713.32 L 370.03 714.75 L 371.74 716.08 L 373.51 717.32 L 375.34 718.47 L 377.23 719.52 L 379.17 720.50 L 381.14 721.43 L 383.12 722.32 L 385.10 723.19 L 387.07 724.09 L 389.02 725.02 L 390.92 726.01 L 392.79 727.07 L 394.60 728.22 L 396.38 729.45 L 398.12 730.77 L 399.82 732.16 L 401.51 733.60 L 403.20 735.08 L 404.89 736.55 L 406.61 738.00 L 408.37 739.40 L 410.17 740.71 L 412.03 741.93 L 413.94 743.01 L 415.91 743.97 L 417.95 744.79 L 420.03 745.48 L 422.16 746.05 L 424.32 746.52 L 426.50 746.90 L 428.70 747.23 L 430.91 747.52 L 433.10 747.79 L 435.29 748.08 L 437.47 748.39 L 439.62 748.74 L 441.76 749.13 L 443.88 749.55 L 446.00 750.00 L 448.10 750.46 L 450.21 750.92 L 452.32 751.35 L 454.44 751.73 L 456.58 752.06 L 458.73 752.31 L 460.89 752.47 L 463.06 752.54 L 465.25 752.53 L 467.44 752.44 L 469.63 752.30 L 471.82 752.13 L 473.99 751.96 L 476.16 751.81 L 478.31 751.72 L 480.44 751.72 L 482.55 751.82 L 484.65 752.05 L 486.73 752.42 L 488.80 752.92 L 490.87 753.56 L 492.93 754.32 L 495.00 755.18 L 497.07 756.11 L 499.16 757.08 L 501.26 758.06 L 503.37 759.01 L 505.51 759.91 L 507.66 760.73 L 509.82 761.45 L 512.00 762.06 L 514.19 762.55 L 516.38 762.94 L 518.58 763.22 L 520.78 763.42 L 522.98 763.56 L 525.19 763.67 L 527.40 763.75 L 529.61 763.85 L 531.83 763.97 L 534.06 764.13 L 536.30 764.34 L 538.55 764.59 L 540.81 764.89 L 543.09 765.21 L 545.38 765.55 L 547.68 765.88 L 549.99 766.17 L 552.29 766.41 L 554.60 766.57 L 556.90 766.64 L 559.19 766.61 L 561.46 766.47 L 563.72 766.22 L 565.96 765.88 L 568.19 765.46 L 570.41 764.99 L 572.62 764.49 L 574.83 763.98 L 577.04 763.50 L 579.28 763.08 L 581.53 762.72 L 583.82 762.45 L 586.14 762.28 L 588.50 762.21 L 590.89 762.22 L 593.33 762.31 L 595.80 762.45 L 598.29 762.62 L 600.81 762.78 L 603.32 762.91 L 605.84 762.98 L 608.33 762.95 L 610.80 762.82 L 613.23 762.55 L 615.62 762.15 L 617.95 761.61 L 620.24 760.94 L 622.48 760.15 L 624.68 759.26 L 626.84 758.28 L 628.98 757.26 L 631.10 756.20 L 633.22 755.13 L 635.34 754.06 L 637.47 753.02 L 639.62 752.01 L 641.78 751.03 L 643.97 750.08 L 646.17 749.15 L 648.38 748.22 L 650.59 747.28 L 652.78 746.30 L 654.95 745.28 L 657.09 744.20 L 659.19 743.04 L 661.23 741.79 L 663.22 740.47 L 665.16 739.06 L 667.04 737.59 L 668.89 736.07 L 670.71 734.51 L 672.52 732.94 L 674.34 731.39 L 676.18 729.88 L 678.07 728.42 L 680.01 727.04 L 682.02 725.75 L 684.12 724.55 L 686.30 723.44 L 688.56 722.42 L 690.90 721.46 L 693.30 720.56 L 695.75 719.69 L 698.23 718.83 L 700.71 717.94 L 703.18 717.01 L 705.61 716.02 L 707.98 714.94 L 710.28 713.77 L 712.50 712.50 L 714.63 711.13 L 716.68 709.66 L 718.64 708.10 L 720.54 706.46 L 722.37 704.77 L 724.17 703.04 L 725.94 701.28 L 727.70 699.51 L 729.47 697.74 L 731.26 695.98 L 733.07 694.24 L 734.91 692.51 L 736.77 690.79 L 738.64 689.07 L 740.50 687.34 L 742.35 685.58 L 744.16 683.79 L 745.92 681.95 L 747.60 680.05 L 749.19 678.08 L 750.68 676.04 L 752.06 673.92 L 753.34 671.74 L 754.52 669.50 L 755.62 667.20 L 756.65 664.87 L 757.64 662.53 L 758.60 660.17 L 759.57 657.83 L 760.56 655.51 L 761.61 653.22 L 762.72 650.97 L 763.90 648.77 L 765.16 646.61 L 766.49 644.48 L 767.88 642.38 L 769.32 640.29 L 770.77 638.21 L 772.22 636.12 L 773.63 634.00 L 774.98 631.85 L 776.23 629.64 L 777.37 627.39 L 778.38 625.07 L 779.24 622.70 L 779.96 620.26 L 780.54 617.78 L 780.98 615.25 L 781.31 612.69 L 781.55 610.11 L 781.72 607.51 L 781.84 604.91 L 781.95 602.32 L 782.05 599.74 L 782.16 597.18 L 782.30 594.64 L 782.47 592.12 L 782.67 589.61 L 782.88 587.12 L 783.10 584.64 L 783.30 582.16 L 783.46 579.68 L 783.58 577.20 L 783.62 574.71 L 783.57 572.21 L 783.43 569.69 L 783.19 567.18 L 782.86 564.65 L 782.45 562.13 L 781.98 559.60 L 781.46 557.09 L 780.94 554.60 L 780.43 552.12 L 779.97 549.66 L 779.59 547.23 L 779.31 544.82 L 779.15 542.44 L 779.12 540.08 L 779.22 537.73 L 779.45 535.40 L 779.79 533.08 L 780.22 530.76 L 780.72 528.44 L 781.26 526.11 L 781.79 523.78 L 782.30 521.44 L 782.75 519.09 L 783.11 516.73 L 783.37 514.37 Z" fill="url(#band)"/>
    <path d="M 737.12 512.00 L 736.93 510.04 L 736.69 508.08 L 736.42 506.12 L 736.12 504.17 L 735.83 502.23 L 735.55 500.28 L 735.31 498.34 L 735.10 496.40 L 734.93 494.46 L 734.79 492.51 L 734.67 490.56 L 734.57 488.61 L 734.46 486.65 L 734.32 484.70 L 734.14 482.75 L 733.91 480.81 L 733.61 478.88 L 733.23 476.96 L 732.77 475.06 L 732.24 473.17 L 731.64 471.29 L 730.99 469.43 L 730.30 467.59 L 729.59 465.75 L 728.88 463.92 L 728.20 462.09 L 727.56 460.25 L 726.98 458.40 L 726.47 456.54 L 726.02 454.65 L 725.65 452.75 L 725.33 450.83 L 725.07 448.89 L 724.83 446.93 L 724.60 444.97 L 724.36 443.00 L 724.08 441.04 L 723.73 439.10 L 723.30 437.17 L 722.78 435.28 L 722.15 433.43 L 721.41 431.62 L 720.56 429.85 L 719.61 428.12 L 718.56 426.44 L 717.45 424.79 L 716.29 423.17 L 715.09 421.58 L 713.88 420.00 L 712.68 418.42 L 711.51 416.84 L 710.37 415.25 L 709.27 413.64 L 708.22 412.02 L 707.20 410.38 L 706.22 408.73 L 705.26 407.07 L 704.30 405.40 L 703.34 403.74 L 702.36 402.10 L 701.34 400.47 L 700.28 398.87 L 699.17 397.30 L 698.01 395.77 L 696.80 394.27 L 695.55 392.80 L 694.27 391.36 L 692.98 389.93 L 691.69 388.50 L 690.42 387.07 L 689.19 385.61 L 688.01 384.12 L 686.89 382.59 L 685.83 381.01 L 684.85 379.37 L 683.94 377.67 L 683.08 375.92 L 682.27 374.12 L 681.48 372.29 L 680.71 370.43 L 679.93 368.58 L 679.12 366.73 L 678.25 364.91 L 677.33 363.14 L 676.32 361.43 L 675.23 359.78 L 674.05 358.22 L 672.78 356.73 L 671.44 355.32 L 670.01 353.99 L 668.53 352.71 L 667.01 351.48 L 665.46 350.29 L 663.89 349.12 L 662.32 347.96 L 660.76 346.79 L 659.21 345.61 L 657.69 344.40 L 656.19 343.18 L 654.70 341.93 L 653.23 340.68 L 651.75 339.42 L 650.27 338.17 L 648.77 336.94 L 647.24 335.75 L 645.67 334.61 L 644.06 333.54 L 642.40 332.52 L 640.69 331.58 L 638.94 330.71 L 637.15 329.91 L 635.33 329.15 L 633.49 328.44 L 631.65 327.75 L 629.82 327.07 L 628.00 326.37 L 626.20 325.64 L 624.44 324.87 L 622.72 324.04 L 621.03 323.15 L 619.38 322.20 L 617.76 321.20 L 616.16 320.15 L 614.58 319.07 L 613.00 317.99 L 611.40 316.91 L 609.79 315.87 L 608.14 314.88 L 606.46 313.97 L 604.73 313.14 L 602.95 312.42 L 601.13 311.81 L 599.27 311.30 L 597.36 310.89 L 595.43 310.58 L 593.48 310.34 L 591.51 310.15 L 589.54 310.00 L 587.57 309.87 L 585.62 309.73 L 583.69 309.57 L 581.77 309.37 L 579.88 309.13 L 578.01 308.84 L 576.16 308.50 L 574.33 308.13 L 572.51 307.73 L 570.69 307.32 L 568.88 306.91 L 567.06 306.53 L 565.23 306.17 L 563.40 305.86 L 561.55 305.59 L 559.70 305.38 L 557.84 305.23 L 555.98 305.11 L 554.11 305.02 L 552.25 304.95 L 550.39 304.87 L 548.54 304.76 L 546.71 304.60 L 544.88 304.38 L 543.08 304.07 L 541.28 303.67 L 539.49 303.17 L 537.71 302.58 L 535.94 301.89 L 534.16 301.14 L 532.38 300.33 L 530.59 299.49 L 528.79 298.64 L 526.98 297.82 L 525.15 297.04 L 523.30 296.33 L 521.44 295.71 L 519.57 295.20 L 517.69 294.79 L 515.80 294.49 L 513.90 294.30 L 512.00 294.20 L 510.10 294.17 L 508.20 294.21 L 506.30 294.29 L 504.40 294.38 L 502.50 294.47 L 500.60 294.55 L 498.70 294.59 L 496.80 294.60 L 494.89 294.58 L 492.97 294.53 L 491.05 294.45 L 489.13 294.37 L 487.20 294.29 L 485.26 294.24 L 483.33 294.23 L 481.40 294.28 L 479.48 294.41 L 477.57 294.61 L 475.67 294.89 L 473.78 295.25 L 471.91 295.68 L 470.05 296.16 L 468.19 296.69 L 466.35 297.23 L 464.51 297.78 L 462.66 298.30 L 460.81 298.79 L 458.95 299.22 L 457.07 299.58 L 455.16 299.88 L 453.24 300.12 L 451.29 300.29 L 449.33 300.42 L 447.34 300.52 L 445.35 300.62 L 443.36 300.74 L 441.37 300.90 L 439.39 301.12 L 437.43 301.43 L 435.51 301.84 L 433.62 302.37 L 431.77 303.00 L 429.97 303.75 L 428.21 304.60 L 426.48 305.55 L 424.80 306.57 L 423.14 307.64 L 421.51 308.76 L 419.89 309.88 L 418.27 311.00 L 416.65 312.10 L 415.02 313.17 L 413.38 314.20 L 411.72 315.19 L 410.04 316.14 L 408.35 317.07 L 406.65 317.97 L 404.95 318.88 L 403.25 319.79 L 401.57 320.73 L 399.91 321.71 L 398.28 322.73 L 396.67 323.81 L 395.11 324.94 L 393.58 326.12 L 392.08 327.34 L 390.61 328.60 L 389.15 329.87 L 387.70 331.14 L 386.24 332.40 L 384.76 333.62 L 383.25 334.79 L 381.70 335.91 L 380.09 336.95 L 378.44 337.94 L 376.72 338.85 L 374.96 339.72 L 373.15 340.54 L 371.31 341.33 L 369.45 342.11 L 367.58 342.91 L 365.73 343.74 L 363.91 344.62 L 362.14 345.57 L 360.43 346.59 L 358.80 347.71 L 357.24 348.91 L 355.76 350.21 L 354.36 351.59 L 353.04 353.04 L 351.78 354.55 L 350.57 356.11 L 349.40 357.70 L 348.26 359.31 L 347.12 360.91 L 345.98 362.51 L 344.82 364.10 L 343.65 365.66 L 342.47 367.20 L 341.26 368.73 L 340.04 370.25 L 338.83 371.77 L 337.62 373.29 L 336.44 374.84 L 335.30 376.42 L 334.22 378.03 L 333.19 379.69 L 332.24 381.39 L 331.35 383.15 L 330.54 384.94 L 329.80 386.78 L 329.11 388.64 L 328.47 390.52 L 327.85 392.41 L 327.23 394.29 L 326.61 396.15 L 325.96 397.99 L 325.26 399.80 L 324.51 401.56 L 323.71 403.29 L 322.84 404.98 L 321.92 406.64 L 320.96 408.27 L 319.97 409.90 L 318.97 411.52 L 317.99 413.15 L 317.04 414.79 L 316.14 416.47 L 315.32 418.19 L 314.60 419.95 L 313.97 421.75 L 313.46 423.60 L 313.05 425.49 L 312.75 427.42 L 312.53 429.38 L 312.40 431.35 L 312.31 433.34 L 312.27 435.33 L 312.24 437.31 L 312.20 439.28 L 312.15 441.23 L 312.05 443.15 L 311.92 445.05 L 311.74 446.93 L 311.51 448.79 L 311.24 450.62 L 310.95 452.45 L 310.65 454.26 L 310.35 456.08 L 310.06 457.89 L 309.81 459.71 L 309.60 461.54 L 309.44 463.37 L 309.34 465.21 L 309.29 467.06 L 309.27 468.91 L 309.29 470.76 L 309.31 472.60 L 309.33 474.44 L 309.32 476.26 L 309.26 478.07 L 309.13 479.87 L 308.92 481.65 L 308.61 483.42 L 308.20 485.17 L 307.70 486.91 L 307.10 488.65 L 306.43 490.39 L 305.70 492.14 L 304.95 493.89 L 304.18 495.64 L 303.43 497.42 L 302.73 499.20 L 302.10 501.00 L 301.55 502.81 L 301.10 504.64 L 300.76 506.47 L 300.52 508.31 L 300.39 510.15 L 300.35 512.00 L 300.38 513.85 L 300.47 515.69 L 300.59 517.54 L 300.73 519.38 L 300.87 521.22 L 300.99 523.06 L 301.07 524.90 L 301.12 526.75 L 301.12 528.60 L 301.10 530.45 L 301.05 532.31 L 300.98 534.18 L 300.93 536.05 L 300.89 537.92 L 300.90 539.79 L 300.96 541.66 L 301.08 543.52 L 301.28 545.37 L 301.56 547.22 L 301.92 549.04 L 302.34 550.86 L 302.81 552.66 L 303.32 554.46 L 303.84 556.24 L 304.37 558.03 L 304.86 559.82 L 305.32 561.62 L 305.71 563.43 L 306.04 565.26 L 306.30 567.12 L 306.49 568.99 L 306.61 570.89 L 306.69 572.82 L 306.74 574.75 L 306.78 576.71 L 306.83 578.66 L 306.93 580.62 L 307.08 582.56 L 307.32 584.48 L 307.66 586.38 L 308.10 588.24 L 308.65 590.06 L 309.31 591.84 L 310.08 593.58 L 310.93 595.29 L 311.85 596.96 L 312.83 598.60 L 313.84 600.23 L 314.86 601.84 L 315.88 603.45 L 316.87 605.07 L 317.82 606.71 L 318.74 608.36 L 319.61 610.03 L 320.44 611.72 L 321.24 613.43 L 322.03 615.15 L 322.80 616.87 L 323.59 618.60 L 324.39 620.31 L 325.24 622.01 L 326.12 623.69 L 327.06 625.33 L 328.05 626.94 L 329.09 628.52 L 330.17 630.08 L 331.28 631.61 L 332.41 633.13 L 333.54 634.65 L 334.64 636.19 L 335.72 637.74 L 336.74 639.33 L 337.70 640.97 L 338.60 642.67 L 339.43 644.42 L 340.19 646.23 L 340.90 648.10 L 341.57 650.01 L 342.21 651.97 L 342.84 653.95 L 343.48 655.93 L 344.15 657.91 L 344.88 659.86 L 345.67 661.76 L 346.55 663.61 L 347.51 665.39 L 348.56 667.10 L 349.70 668.73 L 350.93 670.28 L 352.23 671.77 L 353.60 673.19 L 355.01 674.57 L 356.45 675.91 L 357.91 677.24 L 359.38 678.56 L 360.83 679.89 L 362.28 681.23 L 363.70 682.59 L 365.11 683.98 L 366.51 685.39 L 367.89 686.82 L 369.28 688.24 L 370.68 689.66 L 372.10 691.06 L 373.56 692.42 L 375.05 693.74 L 376.59 694.99 L 378.19 696.18 L 379.83 697.30 L 381.52 698.34 L 383.25 699.33 L 385.01 700.26 L 386.80 701.16 L 388.59 702.03 L 390.38 702.90 L 392.16 703.78 L 393.92 704.70 L 395.64 705.66 L 397.33 706.67 L 398.99 707.74 L 400.61 708.88 L 402.21 710.07 L 403.79 711.31 L 405.35 712.57 L 406.93 713.85 L 408.51 715.11 L 410.12 716.34 L 411.76 717.52 L 413.44 718.62 L 415.18 719.64 L 416.96 720.55 L 418.79 721.35 L 420.67 722.05 L 422.59 722.64 L 424.54 723.14 L 426.52 723.57 L 428.51 723.94 L 430.51 724.28 L 432.51 724.60 L 434.50 724.93 L 436.48 725.27 L 438.43 725.66 L 440.37 726.08 L 442.29 726.55 L 444.19 727.07 L 446.08 727.62 L 447.96 728.20 L 449.84 728.79 L 451.72 729.37 L 453.60 729.94 L 455.50 730.47 L 457.41 730.96 L 459.33 731.39 L 461.26 731.77 L 463.21 732.10 L 465.16 732.38 L 467.11 732.64 L 469.07 732.88 L 471.02 733.12 L 472.96 733.39 L 474.90 733.71 L 476.82 734.09 L 478.74 734.56 L 480.64 735.11 L 482.54 735.76 L 484.43 736.51 L 486.33 737.34 L 488.22 738.24 L 490.12 739.20 L 492.04 740.18 L 493.96 741.17 L 495.91 742.13 L 497.87 743.04 L 499.85 743.88 L 501.84 744.63 L 503.85 745.28 L 505.88 745.81 L 507.91 746.24 L 509.95 746.55 L 512.00 746.77 L 514.05 746.91 L 516.10 746.99 L 518.15 747.02 L 520.21 747.04 L 522.26 747.05 L 524.32 747.08 L 526.38 747.13 L 528.45 747.22 L 530.52 747.33 L 532.60 747.48 L 534.69 747.64 L 536.79 747.81 L 538.89 747.97 L 540.99 748.10 L 543.09 748.19 L 545.20 748.21 L 547.29 748.16 L 549.38 748.03 L 551.46 747.81 L 553.53 747.51 L 555.58 747.14 L 557.62 746.71 L 559.66 746.24 L 561.68 745.74 L 563.71 745.24 L 565.74 744.76 L 567.77 744.31 L 569.82 743.92 L 571.89 743.58 L 573.98 743.31 L 576.09 743.11 L 578.23 742.95 L 580.38 742.84 L 582.55 742.76 L 584.73 742.67 L 586.91 742.56 L 589.09 742.41 L 591.26 742.19 L 593.40 741.88 L 595.52 741.46 L 597.60 740.94 L 599.63 740.29 L 601.63 739.53 L 603.58 738.66 L 605.49 737.69 L 607.36 736.65 L 609.20 735.55 L 611.02 734.41 L 612.83 733.25 L 614.63 732.09 L 616.44 730.95 L 618.25 729.84 L 620.08 728.77 L 621.92 727.73 L 623.78 726.72 L 625.65 725.74 L 627.53 724.77 L 629.41 723.81 L 631.28 722.83 L 633.14 721.82 L 634.98 720.78 L 636.79 719.68 L 638.56 718.53 L 640.30 717.32 L 642.00 716.05 L 643.66 714.74 L 645.30 713.40 L 646.92 712.03 L 648.54 710.67 L 650.16 709.31 L 651.80 707.99 L 653.47 706.72 L 655.18 705.50 L 656.94 704.34 L 658.75 703.24 L 660.61 702.21 L 662.52 701.23 L 664.48 700.30 L 666.47 699.38 L 668.47 698.47 L 670.47 697.55 L 672.46 696.59 L 674.42 695.58 L 676.32 694.50 L 678.16 693.33 L 679.93 692.08 L 681.61 690.73 L 683.21 689.30 L 684.73 687.77 L 686.17 686.17 L 687.55 684.51 L 688.87 682.80 L 690.15 681.06 L 691.41 679.30 L 692.65 677.54 L 693.89 675.78 L 695.15 674.04 L 696.41 672.31 L 697.70 670.60 L 699.00 668.91 L 700.30 667.22 L 701.60 665.54 L 702.89 663.84 L 704.15 662.12 L 705.37 660.37 L 706.53 658.59 L 707.62 656.75 L 708.64 654.87 L 709.59 652.94 L 710.46 650.96 L 711.26 648.95 L 712.01 646.91 L 712.70 644.84 L 713.37 642.77 L 714.03 640.71 L 714.70 638.66 L 715.39 636.64 L 716.12 634.65 L 716.90 632.70 L 717.74 630.78 L 718.63 628.91 L 719.57 627.06 L 720.55 625.23 L 721.56 623.42 L 722.57 621.62 L 723.56 619.80 L 724.52 617.96 L 725.42 616.09 L 726.24 614.19 L 726.96 612.24 L 727.58 610.24 L 728.08 608.21 L 728.48 606.13 L 728.76 604.01 L 728.96 601.87 L 729.07 599.70 L 729.13 597.53 L 729.14 595.35 L 729.14 593.18 L 729.14 591.03 L 729.16 588.90 L 729.21 586.79 L 729.29 584.71 L 729.43 582.65 L 729.60 580.61 L 729.81 578.59 L 730.05 576.59 L 730.29 574.59 L 730.53 572.60 L 730.74 570.61 L 730.92 568.62 L 731.06 566.62 L 731.14 564.61 L 731.16 562.60 L 731.13 560.58 L 731.06 558.56 L 730.96 556.55 L 730.84 554.54 L 730.72 552.54 L 730.64 550.55 L 730.60 548.58 L 730.62 546.63 L 730.73 544.69 L 730.93 542.77 L 731.23 540.86 L 731.62 538.97 L 732.10 537.08 L 732.65 535.19 L 733.25 533.30 L 733.89 531.41 L 734.53 529.51 L 735.15 527.60 L 735.72 525.68 L 736.22 523.75 L 736.63 521.81 L 736.94 519.86 L 737.14 517.90 L 737.23 515.93 L 737.22 513.97 Z" fill="none" stroke="#59B7BE" stroke-width="3" opacity="0.45"/>
    <path d="M 699.37 512.00 L 699.18 510.37 L 698.99 508.74 L 698.82 507.11 L 698.68 505.48 L 698.56 503.85 L 698.47 502.23 L 698.41 500.60 L 698.37 498.97 L 698.34 497.33 L 698.30 495.70 L 698.25 494.07 L 698.17 492.43 L 698.05 490.80 L 697.89 489.18 L 697.67 487.56 L 697.39 485.94 L 697.06 484.34 L 696.69 482.75 L 696.27 481.16 L 695.83 479.59 L 695.38 478.01 L 694.93 476.44 L 694.49 474.87 L 694.08 473.30 L 693.71 471.72 L 693.38 470.13 L 693.09 468.52 L 692.84 466.91 L 692.63 465.29 L 692.45 463.65 L 692.27 462.01 L 692.09 460.36 L 691.88 458.72 L 691.63 457.08 L 691.34 455.46 L 690.97 453.85 L 690.53 452.27 L 690.00 450.71 L 689.39 449.18 L 688.70 447.69 L 687.94 446.22 L 687.12 444.78 L 686.25 443.36 L 685.35 441.96 L 684.43 440.58 L 683.52 439.19 L 682.62 437.81 L 681.74 436.42 L 680.91 435.03 L 680.10 433.61 L 679.34 432.18 L 678.62 430.74 L 677.92 429.27 L 677.24 427.80 L 676.58 426.33 L 675.91 424.85 L 675.22 423.38 L 674.51 421.92 L 673.78 420.47 L 673.00 419.05 L 672.19 417.64 L 671.34 416.26 L 670.46 414.90 L 669.55 413.55 L 668.64 412.21 L 667.72 410.88 L 666.81 409.54 L 665.91 408.18 L 665.05 406.81 L 664.22 405.42 L 663.43 403.99 L 662.67 402.53 L 661.96 401.04 L 661.26 399.52 L 660.59 397.98 L 659.92 396.43 L 659.24 394.88 L 658.54 393.33 L 657.80 391.81 L 657.01 390.32 L 656.16 388.87 L 655.25 387.48 L 654.26 386.14 L 653.19 384.87 L 652.06 383.66 L 650.86 382.51 L 649.61 381.42 L 648.31 380.37 L 646.98 379.35 L 645.63 378.37 L 644.28 377.39 L 642.93 376.42 L 641.59 375.44 L 640.27 374.45 L 638.97 373.44 L 637.69 372.41 L 636.42 371.37 L 635.17 370.31 L 633.92 369.24 L 632.68 368.18 L 631.42 367.14 L 630.14 366.11 L 628.84 365.12 L 627.50 364.16 L 626.14 363.25 L 624.74 362.38 L 623.32 361.56 L 621.87 360.78 L 620.40 360.03 L 618.92 359.31 L 617.43 358.60 L 615.95 357.89 L 614.48 357.16 L 613.03 356.42 L 611.61 355.64 L 610.21 354.83 L 608.84 353.98 L 607.49 353.09 L 606.15 352.16 L 604.83 351.21 L 603.52 350.24 L 602.20 349.27 L 600.87 348.32 L 599.52 347.40 L 598.14 346.52 L 596.73 345.70 L 595.29 344.95 L 593.81 344.27 L 592.29 343.67 L 590.74 343.14 L 589.16 342.68 L 587.56 342.28 L 585.95 341.93 L 584.33 341.60 L 582.71 341.29 L 581.10 340.98 L 579.49 340.65 L 577.91 340.30 L 576.34 339.91 L 574.79 339.48 L 573.26 339.00 L 571.75 338.48 L 570.24 337.93 L 568.75 337.35 L 567.26 336.75 L 565.76 336.15 L 564.26 335.56 L 562.76 334.99 L 561.24 334.44 L 559.71 333.93 L 558.17 333.46 L 556.62 333.02 L 555.07 332.62 L 553.50 332.23 L 551.94 331.86 L 550.37 331.49 L 548.80 331.10 L 547.24 330.69 L 545.69 330.24 L 544.14 329.74 L 542.59 329.19 L 541.05 328.58 L 539.51 327.92 L 537.97 327.22 L 536.42 326.49 L 534.87 325.75 L 533.31 325.00 L 531.73 324.27 L 530.14 323.59 L 528.54 322.96 L 526.92 322.40 L 525.29 321.92 L 523.65 321.53 L 522.00 321.24 L 520.34 321.04 L 518.67 320.93 L 517.00 320.89 L 515.34 320.91 L 513.67 320.98 L 512.00 321.08 L 510.33 321.19 L 508.67 321.30 L 507.01 321.40 L 505.35 321.48 L 503.68 321.53 L 502.02 321.56 L 500.35 321.56 L 498.68 321.54 L 497.01 321.52 L 495.33 321.51 L 493.66 321.51 L 491.98 321.54 L 490.31 321.62 L 488.64 321.74 L 486.98 321.93 L 485.32 322.16 L 483.67 322.46 L 482.03 322.81 L 480.40 323.19 L 478.78 323.61 L 477.16 324.04 L 475.55 324.47 L 473.93 324.89 L 472.31 325.29 L 470.69 325.65 L 469.05 325.97 L 467.40 326.25 L 465.75 326.49 L 464.08 326.70 L 462.40 326.88 L 460.71 327.06 L 459.02 327.25 L 457.34 327.47 L 455.66 327.72 L 453.99 328.03 L 452.35 328.41 L 450.73 328.87 L 449.13 329.42 L 447.57 330.05 L 446.03 330.76 L 444.53 331.55 L 443.06 332.40 L 441.61 333.29 L 440.17 334.23 L 438.76 335.17 L 437.35 336.12 L 435.93 337.06 L 434.52 337.97 L 433.09 338.85 L 431.65 339.70 L 430.20 340.50 L 428.73 341.27 L 427.25 342.02 L 425.76 342.74 L 424.26 343.46 L 422.77 344.18 L 421.28 344.91 L 419.80 345.68 L 418.35 346.47 L 416.91 347.30 L 415.50 348.17 L 414.11 349.08 L 412.74 350.02 L 411.38 350.98 L 410.04 351.96 L 408.71 352.94 L 407.37 353.91 L 406.01 354.87 L 404.65 355.80 L 403.25 356.69 L 401.83 357.55 L 400.38 358.37 L 398.90 359.15 L 397.39 359.91 L 395.86 360.65 L 394.32 361.38 L 392.79 362.13 L 391.26 362.90 L 389.75 363.70 L 388.28 364.56 L 386.85 365.47 L 385.48 366.46 L 384.17 367.52 L 382.92 368.65 L 381.74 369.85 L 380.62 371.11 L 379.55 372.43 L 378.53 373.79 L 377.55 375.19 L 376.60 376.60 L 375.66 378.01 L 374.72 379.43 L 373.78 380.83 L 372.82 382.21 L 371.85 383.58 L 370.86 384.92 L 369.86 386.24 L 368.84 387.55 L 367.82 388.86 L 366.80 390.16 L 365.80 391.48 L 364.81 392.81 L 363.87 394.17 L 362.96 395.55 L 362.09 396.97 L 361.27 398.42 L 360.50 399.89 L 359.76 401.39 L 359.06 402.91 L 358.39 404.44 L 357.73 405.97 L 357.06 407.49 L 356.39 409.01 L 355.70 410.50 L 354.97 411.96 L 354.21 413.40 L 353.40 414.81 L 352.56 416.20 L 351.68 417.57 L 350.78 418.92 L 349.86 420.27 L 348.95 421.62 L 348.04 422.98 L 347.17 424.36 L 346.34 425.76 L 345.57 427.20 L 344.86 428.67 L 344.23 430.17 L 343.67 431.71 L 343.19 433.28 L 342.78 434.88 L 342.42 436.50 L 342.11 438.13 L 341.82 439.76 L 341.56 441.40 L 341.28 443.03 L 341.00 444.64 L 340.68 446.24 L 340.33 447.81 L 339.93 449.37 L 339.49 450.91 L 339.00 452.43 L 338.48 453.94 L 337.93 455.44 L 337.36 456.94 L 336.79 458.43 L 336.23 459.93 L 335.68 461.44 L 335.16 462.96 L 334.67 464.48 L 334.22 466.02 L 333.80 467.57 L 333.41 469.12 L 333.04 470.68 L 332.68 472.25 L 332.32 473.81 L 331.94 475.37 L 331.54 476.92 L 331.09 478.47 L 330.60 480.01 L 330.05 481.55 L 329.44 483.09 L 328.78 484.62 L 328.08 486.15 L 327.34 487.69 L 326.59 489.23 L 325.83 490.79 L 325.09 492.36 L 324.39 493.94 L 323.75 495.53 L 323.17 497.14 L 322.67 498.76 L 322.26 500.40 L 321.95 502.04 L 321.72 503.69 L 321.58 505.35 L 321.51 507.01 L 321.50 508.67 L 321.53 510.34 L 321.60 512.00 L 321.67 513.66 L 321.74 515.32 L 321.80 516.98 L 321.84 518.64 L 321.84 520.30 L 321.82 521.97 L 321.77 523.63 L 321.70 525.31 L 321.63 526.98 L 321.56 528.66 L 321.50 530.34 L 321.47 532.03 L 321.49 533.71 L 321.55 535.38 L 321.67 537.06 L 321.84 538.73 L 322.07 540.39 L 322.34 542.04 L 322.66 543.69 L 323.00 545.33 L 323.36 546.96 L 323.71 548.60 L 324.05 550.24 L 324.37 551.88 L 324.65 553.53 L 324.89 555.20 L 325.09 556.87 L 325.24 558.56 L 325.37 560.27 L 325.47 561.98 L 325.56 563.70 L 325.66 565.43 L 325.79 567.16 L 325.95 568.88 L 326.17 570.59 L 326.46 572.28 L 326.83 573.96 L 327.28 575.60 L 327.82 577.22 L 328.44 578.81 L 329.13 580.37 L 329.88 581.91 L 330.69 583.42 L 331.52 584.92 L 332.38 586.40 L 333.23 587.88 L 334.07 589.37 L 334.89 590.86 L 335.67 592.36 L 336.42 593.87 L 337.13 595.41 L 337.80 596.96 L 338.45 598.53 L 339.08 600.11 L 339.71 601.69 L 340.33 603.28 L 340.98 604.86 L 341.65 606.43 L 342.35 607.98 L 343.09 609.52 L 343.87 611.04 L 344.69 612.53 L 345.54 614.01 L 346.42 615.47 L 347.31 616.92 L 348.21 618.37 L 349.10 619.82 L 349.97 621.29 L 350.82 622.78 L 351.63 624.29 L 352.41 625.83 L 353.15 627.41 L 353.86 629.02 L 354.55 630.65 L 355.22 632.30 L 355.88 633.97 L 356.56 635.64 L 357.26 637.31 L 358.00 638.95 L 358.80 640.55 L 359.65 642.11 L 360.58 643.62 L 361.59 645.08 L 362.66 646.46 L 363.81 647.79 L 365.03 649.05 L 366.30 650.26 L 367.62 651.43 L 368.97 652.55 L 370.34 653.66 L 371.72 654.75 L 373.10 655.83 L 374.47 656.92 L 375.83 658.02 L 377.17 659.14 L 378.48 660.28 L 379.79 661.44 L 381.08 662.61 L 382.37 663.78 L 383.66 664.95 L 384.97 666.10 L 386.30 667.23 L 387.65 668.33 L 389.03 669.39 L 390.45 670.41 L 391.90 671.37 L 393.39 672.30 L 394.90 673.18 L 396.43 674.03 L 397.97 674.85 L 399.52 675.66 L 401.07 676.46 L 402.60 677.28 L 404.12 678.12 L 405.62 678.99 L 407.09 679.89 L 408.54 680.83 L 409.97 681.81 L 411.37 682.83 L 412.77 683.87 L 414.17 684.92 L 415.57 685.97 L 416.98 687.00 L 418.42 688.00 L 419.88 688.96 L 421.38 689.86 L 422.91 690.68 L 424.48 691.44 L 426.09 692.11 L 427.73 692.71 L 429.41 693.24 L 431.10 693.70 L 432.81 694.13 L 434.53 694.51 L 436.25 694.89 L 437.96 695.26 L 439.66 695.64 L 441.35 696.05 L 443.02 696.50 L 444.67 696.99 L 446.31 697.52 L 447.93 698.08 L 449.54 698.69 L 451.14 699.31 L 452.74 699.95 L 454.34 700.60 L 455.95 701.23 L 457.56 701.84 L 459.19 702.42 L 460.83 702.96 L 462.48 703.47 L 464.14 703.94 L 465.82 704.37 L 467.49 704.78 L 469.17 705.18 L 470.85 705.58 L 472.53 705.98 L 474.21 706.42 L 475.88 706.89 L 477.55 707.40 L 479.21 707.96 L 480.86 708.58 L 482.52 709.25 L 484.18 709.95 L 485.84 710.69 L 487.51 711.44 L 489.19 712.18 L 490.88 712.91 L 492.59 713.59 L 494.31 714.22 L 496.04 714.77 L 497.79 715.24 L 499.55 715.61 L 501.31 715.89 L 503.09 716.08 L 504.87 716.18 L 506.65 716.19 L 508.44 716.15 L 510.22 716.06 L 512.00 715.93 L 513.78 715.79 L 515.55 715.65 L 517.33 715.52 L 519.10 715.41 L 520.88 715.32 L 522.65 715.26 L 524.43 715.22 L 526.21 715.19 L 527.99 715.17 L 529.77 715.14 L 531.56 715.09 L 533.34 715.01 L 535.12 714.88 L 536.89 714.71 L 538.66 714.47 L 540.41 714.18 L 542.16 713.82 L 543.90 713.42 L 545.63 712.97 L 547.35 712.49 L 549.07 712.00 L 550.78 711.50 L 552.49 711.01 L 554.20 710.55 L 555.92 710.11 L 557.65 709.72 L 559.38 709.37 L 561.13 709.05 L 562.89 708.76 L 564.65 708.50 L 566.42 708.23 L 568.19 707.97 L 569.96 707.67 L 571.72 707.33 L 573.46 706.93 L 575.18 706.46 L 576.88 705.91 L 578.55 705.28 L 580.19 704.56 L 581.79 703.75 L 583.36 702.87 L 584.91 701.93 L 586.42 700.93 L 587.92 699.90 L 589.40 698.86 L 590.87 697.81 L 592.34 696.77 L 593.81 695.76 L 595.30 694.77 L 596.79 693.83 L 598.29 692.92 L 599.81 692.04 L 601.34 691.19 L 602.88 690.36 L 604.42 689.54 L 605.96 688.71 L 607.48 687.86 L 609.00 686.99 L 610.49 686.09 L 611.96 685.14 L 613.41 684.16 L 614.83 683.14 L 616.23 682.09 L 617.61 681.01 L 618.98 679.92 L 620.34 678.82 L 621.70 677.74 L 623.07 676.67 L 624.45 675.62 L 625.86 674.61 L 627.30 673.64 L 628.76 672.71 L 630.25 671.81 L 631.76 670.93 L 633.30 670.08 L 634.84 669.22 L 636.38 668.36 L 637.90 667.48 L 639.41 666.56 L 640.87 665.58 L 642.29 664.55 L 643.65 663.45 L 644.95 662.27 L 646.19 661.03 L 647.35 659.71 L 648.46 658.33 L 649.50 656.90 L 650.50 655.42 L 651.46 653.92 L 652.39 652.39 L 653.30 650.86 L 654.21 649.33 L 655.12 647.82 L 656.04 646.32 L 656.98 644.85 L 657.93 643.40 L 658.90 641.96 L 659.87 640.54 L 660.85 639.13 L 661.82 637.72 L 662.78 636.30 L 663.71 634.86 L 664.61 633.39 L 665.47 631.90 L 666.28 630.39 L 667.05 628.84 L 667.76 627.26 L 668.44 625.66 L 669.08 624.04 L 669.69 622.41 L 670.29 620.79 L 670.88 619.17 L 671.49 617.56 L 672.11 615.98 L 672.77 614.42 L 673.46 612.89 L 674.19 611.39 L 674.95 609.91 L 675.75 608.46 L 676.58 607.02 L 677.41 605.59 L 678.25 604.15 L 679.07 602.71 L 679.86 601.25 L 680.60 599.77 L 681.29 598.26 L 681.90 596.71 L 682.44 595.13 L 682.91 593.52 L 683.30 591.88 L 683.62 590.21 L 683.88 588.53 L 684.10 586.83 L 684.28 585.13 L 684.45 583.43 L 684.63 581.75 L 684.81 580.07 L 685.03 578.42 L 685.28 576.79 L 685.57 575.17 L 685.91 573.58 L 686.29 572.01 L 686.70 570.46 L 687.15 568.91 L 687.61 567.37 L 688.07 565.83 L 688.53 564.29 L 688.96 562.74 L 689.37 561.19 L 689.75 559.63 L 690.09 558.06 L 690.40 556.48 L 690.67 554.90 L 690.93 553.31 L 691.17 551.72 L 691.42 550.14 L 691.68 548.56 L 691.97 546.98 L 692.31 545.42 L 692.69 543.86 L 693.12 542.31 L 693.61 540.76 L 694.15 539.22 L 694.74 537.68 L 695.36 536.14 L 696.00 534.59 L 696.63 533.04 L 697.26 531.47 L 697.84 529.89 L 698.37 528.31 L 698.83 526.70 L 699.21 525.09 L 699.50 523.47 L 699.71 521.84 L 699.82 520.20 L 699.84 518.56 L 699.80 516.92 L 699.69 515.28 L 699.54 513.64 Z" fill="none" stroke="#7CD2D4" stroke-width="2.5" opacity="0.35"/>
    <circle cx="512" cy="512" r="168" fill="#0C1322" opacity="0.35"/>
    <path d="M 665.58 512.00 L 665.55 510.66 L 665.50 509.32 L 665.43 507.98 L 665.35 506.64 L 665.26 505.31 L 665.15 503.97 L 665.03 502.64 L 664.90 501.31 L 664.75 499.98 L 664.59 498.65 L 664.42 497.32 L 664.23 496.00 L 664.02 494.68 L 663.81 493.36 L 663.58 492.04 L 663.33 490.73 L 663.08 489.42 L 662.81 488.11 L 662.53 486.81 L 662.23 485.51 L 661.92 484.21 L 661.60 482.92 L 661.27 481.63 L 660.92 480.35 L 660.56 479.06 L 660.19 477.79 L 659.80 476.52 L 659.41 475.25 L 659.00 473.98 L 658.58 472.72 L 658.15 471.47 L 657.70 470.22 L 657.25 468.98 L 656.78 467.74 L 656.30 466.50 L 655.81 465.27 L 655.31 464.05 L 654.79 462.83 L 654.27 461.62 L 653.74 460.41 L 653.19 459.21 L 652.63 458.02 L 652.07 456.83 L 651.49 455.64 L 650.90 454.46 L 650.31 453.29 L 649.70 452.13 L 649.08 450.97 L 648.45 449.81 L 647.82 448.67 L 647.17 447.53 L 646.51 446.39 L 645.85 445.27 L 645.18 444.14 L 644.49 443.03 L 643.80 441.92 L 643.10 440.82 L 642.39 439.72 L 641.67 438.64 L 640.94 437.55 L 640.21 436.48 L 639.47 435.41 L 638.71 434.35 L 637.95 433.29 L 637.19 432.25 L 636.41 431.21 L 635.63 430.17 L 634.84 429.14 L 634.04 428.12 L 633.24 427.11 L 632.42 426.10 L 631.60 425.10 L 630.78 424.11 L 629.94 423.12 L 629.10 422.14 L 628.26 421.17 L 627.40 420.21 L 626.54 419.25 L 625.67 418.30 L 624.80 417.35 L 623.92 416.41 L 623.03 415.48 L 622.14 414.56 L 621.24 413.64 L 620.34 412.73 L 619.42 411.83 L 618.51 410.93 L 617.58 410.04 L 616.66 409.16 L 615.72 408.28 L 614.78 407.41 L 613.83 406.55 L 612.88 405.69 L 611.93 404.84 L 610.96 404.00 L 609.99 403.17 L 609.02 402.34 L 608.04 401.52 L 607.06 400.70 L 606.07 399.89 L 605.07 399.09 L 604.07 398.30 L 603.07 397.51 L 602.06 396.73 L 601.04 395.96 L 600.02 395.19 L 598.99 394.43 L 597.96 393.68 L 596.93 392.94 L 595.89 392.20 L 594.84 391.47 L 593.79 390.74 L 592.73 390.02 L 591.67 389.31 L 590.61 388.61 L 589.54 387.91 L 588.46 387.22 L 587.38 386.54 L 586.30 385.87 L 585.21 385.20 L 584.11 384.54 L 583.02 383.89 L 581.91 383.24 L 580.80 382.60 L 579.69 381.97 L 578.57 381.35 L 577.45 380.73 L 576.32 380.12 L 575.19 379.52 L 574.05 378.93 L 572.91 378.35 L 571.76 377.77 L 570.61 377.20 L 569.46 376.64 L 568.30 376.08 L 567.13 375.54 L 565.96 375.00 L 564.79 374.47 L 563.61 373.95 L 562.43 373.44 L 561.24 372.94 L 560.05 372.44 L 558.86 371.96 L 557.66 371.48 L 556.45 371.01 L 555.25 370.55 L 554.03 370.10 L 552.82 369.66 L 551.60 369.22 L 550.37 368.80 L 549.14 368.39 L 547.91 367.98 L 546.67 367.59 L 545.43 367.20 L 544.18 366.83 L 542.94 366.46 L 541.68 366.10 L 540.43 365.76 L 539.17 365.42 L 537.90 365.10 L 536.64 364.78 L 535.37 364.48 L 534.09 364.18 L 532.81 363.90 L 531.53 363.63 L 530.25 363.37 L 528.96 363.11 L 527.67 362.87 L 526.38 362.65 L 525.09 362.43 L 523.79 362.22 L 522.49 362.03 L 521.18 361.84 L 519.88 361.67 L 518.57 361.51 L 517.26 361.36 L 515.95 361.23 L 514.63 361.10 L 513.32 360.99 L 512.00 360.89 L 510.68 360.80 L 509.36 360.73 L 508.04 360.67 L 506.71 360.62 L 505.39 360.58 L 504.06 360.55 L 502.74 360.54 L 501.41 360.54 L 500.08 360.55 L 498.75 360.58 L 497.42 360.62 L 496.09 360.67 L 494.77 360.74 L 493.44 360.82 L 492.11 360.91 L 490.78 361.01 L 489.45 361.13 L 488.13 361.27 L 486.80 361.41 L 485.48 361.57 L 484.15 361.74 L 482.83 361.93 L 481.51 362.13 L 480.19 362.34 L 478.87 362.57 L 477.56 362.81 L 476.24 363.06 L 474.93 363.33 L 473.62 363.61 L 472.32 363.91 L 471.02 364.22 L 469.72 364.54 L 468.42 364.87 L 467.13 365.22 L 465.84 365.59 L 464.55 365.97 L 463.27 366.36 L 461.99 366.76 L 460.72 367.18 L 459.45 367.61 L 458.18 368.05 L 456.92 368.51 L 455.66 368.98 L 454.41 369.47 L 453.17 369.97 L 451.93 370.48 L 450.69 371.00 L 449.46 371.54 L 448.24 372.09 L 447.02 372.66 L 445.81 373.23 L 444.61 373.82 L 443.41 374.43 L 442.22 375.04 L 441.03 375.67 L 439.85 376.31 L 438.68 376.96 L 437.52 377.63 L 436.36 378.30 L 435.21 378.99 L 434.07 379.69 L 432.93 380.41 L 431.80 381.13 L 430.69 381.87 L 429.57 382.62 L 428.47 383.38 L 427.38 384.15 L 426.29 384.93 L 425.21 385.72 L 424.14 386.53 L 423.08 387.34 L 422.03 388.17 L 420.99 389.00 L 419.95 389.85 L 418.93 390.71 L 417.91 391.57 L 416.91 392.45 L 415.91 393.34 L 414.92 394.23 L 413.94 395.14 L 412.98 396.06 L 412.02 396.98 L 411.07 397.92 L 410.13 398.86 L 409.20 399.81 L 408.28 400.77 L 407.37 401.74 L 406.47 402.72 L 405.58 403.70 L 404.70 404.70 L 403.83 405.70 L 402.97 406.71 L 402.12 407.73 L 401.28 408.75 L 400.45 409.78 L 399.63 410.82 L 398.82 411.87 L 398.02 412.92 L 397.23 413.98 L 396.46 415.05 L 395.69 416.12 L 394.93 417.20 L 394.18 418.29 L 393.45 419.38 L 392.72 420.47 L 392.01 421.58 L 391.30 422.69 L 390.60 423.80 L 389.92 424.92 L 389.24 426.05 L 388.58 427.18 L 387.93 428.31 L 387.28 429.45 L 386.65 430.60 L 386.02 431.74 L 385.41 432.90 L 384.81 434.06 L 384.21 435.22 L 383.63 436.38 L 383.06 437.55 L 382.49 438.73 L 381.94 439.91 L 381.40 441.09 L 380.86 442.27 L 380.34 443.46 L 379.82 444.65 L 379.32 445.85 L 378.82 447.05 L 378.34 448.25 L 377.86 449.45 L 377.40 450.66 L 376.94 451.87 L 376.50 453.08 L 376.06 454.30 L 375.63 455.51 L 375.21 456.73 L 374.80 457.96 L 374.40 459.18 L 374.01 460.41 L 373.63 461.64 L 373.26 462.87 L 372.90 464.10 L 372.54 465.34 L 372.20 466.58 L 371.86 467.81 L 371.53 469.06 L 371.22 470.30 L 370.91 471.54 L 370.61 472.79 L 370.31 474.04 L 370.03 475.28 L 369.76 476.54 L 369.49 477.79 L 369.24 479.04 L 368.99 480.30 L 368.75 481.55 L 368.52 482.81 L 368.30 484.07 L 368.08 485.33 L 367.88 486.59 L 367.68 487.85 L 367.50 489.11 L 367.32 490.38 L 367.15 491.64 L 366.99 492.91 L 366.83 494.18 L 366.69 495.44 L 366.55 496.71 L 366.42 497.98 L 366.30 499.25 L 366.19 500.52 L 366.09 501.80 L 366.00 503.07 L 365.91 504.34 L 365.84 505.62 L 365.77 506.89 L 365.71 508.17 L 365.66 509.45 L 365.62 510.72 L 365.58 512.00 L 365.56 513.28 L 365.54 514.56 L 365.53 515.84 L 365.54 517.11 L 365.55 518.39 L 365.57 519.67 L 365.59 520.95 L 365.63 522.24 L 365.68 523.52 L 365.73 524.80 L 365.80 526.08 L 365.87 527.36 L 365.95 528.64 L 366.04 529.92 L 366.14 531.20 L 366.25 532.48 L 366.37 533.76 L 366.50 535.04 L 366.64 536.32 L 366.79 537.60 L 366.95 538.88 L 367.11 540.16 L 367.29 541.44 L 367.48 542.72 L 367.67 544.00 L 367.88 545.27 L 368.09 546.55 L 368.32 547.82 L 368.56 549.10 L 368.80 550.37 L 369.06 551.64 L 369.32 552.91 L 369.60 554.18 L 369.89 555.45 L 370.18 556.71 L 370.49 557.98 L 370.81 559.24 L 371.14 560.50 L 371.48 561.76 L 371.83 563.02 L 372.19 564.27 L 372.56 565.53 L 372.94 566.78 L 373.33 568.02 L 373.74 569.27 L 374.15 570.51 L 374.58 571.75 L 375.02 572.99 L 375.46 574.22 L 375.92 575.45 L 376.39 576.68 L 376.88 577.90 L 377.37 579.12 L 377.87 580.34 L 378.39 581.55 L 378.92 582.76 L 379.45 583.97 L 380.00 585.17 L 380.56 586.36 L 381.14 587.55 L 381.72 588.74 L 382.32 589.92 L 382.92 591.10 L 383.54 592.27 L 384.17 593.44 L 384.81 594.60 L 385.46 595.75 L 386.13 596.90 L 386.80 598.04 L 387.49 599.18 L 388.19 600.31 L 388.90 601.44 L 389.62 602.56 L 390.35 603.67 L 391.10 604.77 L 391.85 605.87 L 392.62 606.96 L 393.40 608.04 L 394.19 609.12 L 394.99 610.19 L 395.80 611.25 L 396.62 612.30 L 397.45 613.34 L 398.30 614.38 L 399.15 615.41 L 400.02 616.42 L 400.89 617.43 L 401.78 618.44 L 402.68 619.43 L 403.59 620.41 L 404.51 621.39 L 405.44 622.35 L 406.38 623.30 L 407.33 624.25 L 408.29 625.18 L 409.26 626.11 L 410.23 627.02 L 411.22 627.93 L 412.22 628.82 L 413.23 629.71 L 414.25 630.58 L 415.28 631.44 L 416.31 632.30 L 417.36 633.14 L 418.41 633.97 L 419.48 634.78 L 420.55 635.59 L 421.63 636.39 L 422.72 637.17 L 423.81 637.94 L 424.92 638.70 L 426.03 639.45 L 427.15 640.19 L 428.28 640.91 L 429.42 641.63 L 430.56 642.33 L 431.71 643.02 L 432.87 643.69 L 434.04 644.36 L 435.21 645.01 L 436.39 645.65 L 437.57 646.27 L 438.76 646.88 L 439.96 647.49 L 441.16 648.07 L 442.37 648.65 L 443.59 649.21 L 444.81 649.76 L 446.04 650.30 L 447.27 650.82 L 448.50 651.33 L 449.74 651.83 L 450.99 652.32 L 452.24 652.79 L 453.49 653.25 L 454.75 653.69 L 456.01 654.13 L 457.28 654.55 L 458.55 654.95 L 459.83 655.35 L 461.10 655.73 L 462.38 656.10 L 463.67 656.45 L 464.95 656.80 L 466.24 657.12 L 467.53 657.44 L 468.83 657.74 L 470.12 658.04 L 471.42 658.31 L 472.72 658.58 L 474.03 658.83 L 475.33 659.07 L 476.64 659.30 L 477.94 659.51 L 479.25 659.72 L 480.56 659.90 L 481.87 660.08 L 483.18 660.25 L 484.50 660.40 L 485.81 660.54 L 487.12 660.67 L 488.43 660.78 L 489.75 660.89 L 491.06 660.98 L 492.38 661.06 L 493.69 661.13 L 495.00 661.19 L 496.32 661.23 L 497.63 661.26 L 498.94 661.29 L 500.25 661.30 L 501.56 661.30 L 502.87 661.28 L 504.18 661.26 L 505.48 661.23 L 506.79 661.18 L 508.10 661.13 L 509.40 661.06 L 510.70 660.98 L 512.00 660.89 L 513.30 660.79 L 514.60 660.68 L 515.89 660.56 L 517.18 660.43 L 518.47 660.29 L 519.76 660.14 L 521.05 659.98 L 522.34 659.81 L 523.62 659.63 L 524.90 659.44 L 526.18 659.24 L 527.45 659.03 L 528.73 658.81 L 530.00 658.58 L 531.27 658.34 L 532.53 658.09 L 533.80 657.84 L 535.06 657.57 L 536.31 657.30 L 537.57 657.01 L 538.82 656.72 L 540.07 656.42 L 541.32 656.11 L 542.56 655.79 L 543.80 655.46 L 545.04 655.12 L 546.28 654.77 L 547.51 654.42 L 548.74 654.06 L 549.96 653.69 L 551.19 653.31 L 552.41 652.92 L 553.62 652.52 L 554.84 652.12 L 556.05 651.70 L 557.26 651.28 L 558.46 650.85 L 559.66 650.42 L 560.86 649.97 L 562.05 649.52 L 563.24 649.06 L 564.43 648.59 L 565.62 648.11 L 566.80 647.63 L 567.97 647.13 L 569.15 646.63 L 570.32 646.12 L 571.49 645.61 L 572.65 645.08 L 573.81 644.55 L 574.97 644.01 L 576.12 643.46 L 577.27 642.91 L 578.41 642.34 L 579.56 641.77 L 580.69 641.19 L 581.83 640.61 L 582.96 640.01 L 584.09 639.41 L 585.21 638.80 L 586.33 638.18 L 587.44 637.56 L 588.55 636.92 L 589.66 636.28 L 590.76 635.64 L 591.86 634.98 L 592.96 634.31 L 594.05 633.64 L 595.13 632.96 L 596.22 632.27 L 597.29 631.58 L 598.37 630.87 L 599.43 630.16 L 600.50 629.44 L 601.56 628.71 L 602.61 627.98 L 603.66 627.23 L 604.71 626.48 L 605.75 625.72 L 606.78 624.95 L 607.81 624.18 L 608.83 623.39 L 609.85 622.60 L 610.87 621.80 L 611.87 620.99 L 612.88 620.18 L 613.87 619.35 L 614.86 618.52 L 615.85 617.68 L 616.83 616.83 L 617.80 615.97 L 618.77 615.11 L 619.73 614.23 L 620.68 613.35 L 621.63 612.46 L 622.57 611.56 L 623.51 610.65 L 624.44 609.74 L 625.36 608.82 L 626.27 607.88 L 627.18 606.94 L 628.08 606.00 L 628.97 605.04 L 629.85 604.08 L 630.73 603.10 L 631.60 602.12 L 632.46 601.13 L 633.31 600.14 L 634.15 599.13 L 634.99 598.12 L 635.82 597.10 L 636.64 596.07 L 637.45 595.03 L 638.25 593.99 L 639.04 592.93 L 639.82 591.87 L 640.60 590.81 L 641.36 589.73 L 642.12 588.65 L 642.86 587.55 L 643.60 586.46 L 644.32 585.35 L 645.04 584.24 L 645.75 583.11 L 646.44 581.99 L 647.13 580.85 L 647.80 579.71 L 648.46 578.56 L 649.12 577.40 L 649.76 576.24 L 650.39 575.07 L 651.01 573.89 L 651.61 572.71 L 652.21 571.52 L 652.79 570.32 L 653.37 569.12 L 653.93 567.91 L 654.48 566.69 L 655.01 565.47 L 655.54 564.24 L 656.05 563.01 L 656.55 561.77 L 657.04 560.53 L 657.51 559.28 L 657.98 558.03 L 658.43 556.77 L 658.86 555.50 L 659.29 554.23 L 659.70 552.96 L 660.09 551.68 L 660.48 550.40 L 660.85 549.11 L 661.20 547.82 L 661.55 546.53 L 661.88 545.23 L 662.19 543.92 L 662.50 542.62 L 662.79 541.31 L 663.06 540.00 L 663.32 538.68 L 663.57 537.36 L 663.80 536.04 L 664.02 534.72 L 664.23 533.39 L 664.42 532.07 L 664.60 530.74 L 664.76 529.40 L 664.91 528.07 L 665.04 526.74 L 665.16 525.40 L 665.27 524.06 L 665.36 522.72 L 665.44 521.38 L 665.50 520.04 L 665.55 518.70 L 665.59 517.36 L 665.61 516.02 L 665.61 514.68 L 665.60 513.34 Z" fill="url(#coreGlow)"/>
  </g>
</svg>